<svg width="1920" height="1080" viewBox="0 0 1920 1080" fill="none" xmlns="http://www.w3.org/2000/svg">
  <defs>
    <radialGradient id="bg" cx="0.5" cy="0.4" r="1" gradientUnits="objectBoundingBox">
      <stop offset="0" stop-color="#C4E5FF"/>
      <stop offset="1" stop-color="#7BC6FF"/>
    </radialGradient>
    <radialGradient id="cellOuter" cx="0.5" cy="0.5" r="0.5">
      <stop offset="0" stop-color="#FFFFFF" stop-opacity="0.65"/>
      <stop offset="0.35" stop-color="#9ED8FF" stop-opacity="0.5"/>
      <stop offset="1" stop-color="#3BA4E6" stop-opacity="0.15"/>
    </radialGradient>
    <radialGradient id="cellInner" cx="0.5" cy="0.5" r="0.5">
      <stop offset="0" stop-color="#FF6B6B" stop-opacity="0.9"/>
      <stop offset="1" stop-color="#C73845" stop-opacity="0.8"/>
    </radialGradient>
    <filter id="blur" x="-20%" y="-20%" width="140%" height="140%">
      <feGaussianBlur stdDeviation="15" result="blur"/>
    </filter>
  </defs>
  <rect width="1920" height="1080" fill="url(#bg)"/>
  <g opacity="0.9">
    <g transform="translate(220 120) scale(1.3)">
      <circle cx="0" cy="0" r="220" fill="url(#cellOuter)"/>
      <circle cx="0" cy="0" r="110" fill="url(#cellInner)" filter="url(#blur)"/>
    </g>
    <g transform="translate(1450 260) scale(0.95)">
      <circle cx="0" cy="0" r="200" fill="url(#cellOuter)"/>
      <circle cx="0" cy="0" r="95" fill="url(#cellInner)" filter="url(#blur)"/>
    </g>
    <g transform="translate(900 760) scale(1.1)">
      <circle cx="0" cy="0" r="210" fill="url(#cellOuter)"/>
      <circle cx="0" cy="0" r="105" fill="url(#cellInner)" filter="url(#blur)"/>
    </g>
    <g transform="translate(250 820) scale(0.75)" opacity="0.5">
      <circle cx="0" cy="0" r="180" fill="url(#cellOuter)"/>
      <circle cx="0" cy="0" r="85" fill="url(#cellInner)" filter="url(#blur)"/>
    </g>
    <g transform="translate(1680 780) scale(0.6)" opacity="0.6">
      <circle cx="0" cy="0" r="170" fill="url(#cellOuter)"/>
      <circle cx="0" cy="0" r="80" fill="url(#cellInner)" filter="url(#blur)"/>
    </g>
  </g>
  <g opacity="0.25">
    <circle cx="300" cy="200" r="6" fill="#fff"/>
    <circle cx="420" cy="860" r="4" fill="#fff"/>
    <circle cx="1560" cy="180" r="5" fill="#fff"/>
    <circle cx="1750" cy="640" r="7" fill="#fff"/>
    <circle cx="980" cy="220" r="4" fill="#fff"/>
    <circle cx="1120" cy="910" r="6" fill="#fff"/>
  </g>
</svg>
